:FULLY-SPECIFIED
:FORCE-ALL-JOINTS-BE-3DOF
:DEGREES
437
root 10.4322 17.1261 25.1925 5.04962 0.586389 -1.53317
lfemur -32.4062 2.69428 -22.8988
ltibia 30.4006 0 0
lfoot -15.7401 5.60427 0
ltoes 1.35592 0 0
rfemur -5.67569 0.423066 22.9054
rtibia 41.8909 0 0
rfoot -10.7871 -1.56249 0
rtoes -15.4688 0 0
lowerback -7.52479 0.152597 -0.625522
upperback 0.618771 0.121128 2.22991
thorax 4.93243 0.00619628 2.7145
lowerneck -21.394 -4.65102 -11.7265
upperneck 22.9918 -5.73352 11.4284
head 11.7965 -2.20758 5.32368
lclavicle 2.33163e-14 2.00292e-14 0
lhumerus -29.3945 -13.9444 89.4683
lradius 23.2447 0 0
lwrist 1.33766 0 0
lhand -12.0775 -23.9356 0
lfingers 7.12502 0 0
lthumb 13.982 5.5686 0
rclavicle 2.33163e-14 2.00292e-14 0
rhumerus -36.4282 13.152 -87.9227
rradius 39.2694 0 0
rwrist -17.2308 0 0
rhand -30.6353 -27.2065 0
rfingers 7.12502 0 0
rthumb -3.93104 -57.1503 0
438
root 10.4578 17.1438 25.333 5.00088 0.682014 -1.30591
lfemur -31.6414 2.74671 -23.247
ltibia 30.3368 0 0
lfoot -15.7805 5.50233 0
ltoes 1.59574 0 0
rfemur -6.74366 0.288104 22.5646
rtibia 43.0938 0 0
rfoot -11.0311 -1.90865 0
rtoes -15.5481 0 0
lowerback -7.47844 0.0168798 -0.770828
upperback 0.631775 -0.0438238 2.17905
thorax 4.9283 -0.0784338 2.72332
lowerneck -21.4793 -4.58931 -11.667
upperneck 23.0435 -5.64672 11.3783
head 11.8162 -2.16703 5.31089
lclavicle 2.22392e-14 1.89781e-14 0
lhumerus -28.6272 -14.1415 89.3042
lradius 23.2037 0 0
lwrist 1.20703 0 0
lhand -12.1388 -23.9049 0
lfingers 7.12502 0 0
lthumb 13.9229 5.60366 0
rclavicle 2.22392e-14 1.89781e-14 0
rhumerus -36.7537 13.0211 -87.9117
rradius 39.1878 0 0
rwrist -17.1804 0 0
rhand -30.6537 -27.3215 0
rfingers 7.12502 0 0
rthumb -3.9488 -57.265 0
439
root 10.483 17.1611 25.4737 4.95369 0.777434 -1.0812
lfemur -30.8644 2.79728 -23.5884
ltibia 30.2593 0 0
lfoot -15.8172 5.40216 0
ltoes 1.82007 0 0
rfemur -7.80701 0.157356 22.229
rtibia 44.2682 0 0
rfoot -11.2768 -2.25315 0
rtoes -15.631 0 0
lowerback -7.43259 -0.118387 -0.914674
upperback 0.644032 -0.208372 2.12926
thorax 4.92379 -0.162826 2.73251
lowerneck -21.5643 -4.52798 -11.6079
upperneck 23.0942 -5.56054 11.329
head 11.8356 -2.1267 5.29832
lclavicle 2.11831e-14 1.79465e-14 0
lhumerus -27.8741 -14.3377 89.1456
lradius 23.1674 0 0
lwrist 1.08055 0 0
lhand -12.1976 -23.8755 0
lfingers 7.12502 0 0
lthumb 13.8662 5.6373 0
rclavicle 2.11831e-14 1.79465e-14 0
rhumerus -37.0789 12.887 -87.8968
rradius 39.1014 0 0
rwrist -17.1276 0 0
rhand -30.6708 -27.4318 0
rfingers 7.12502 0 0
rthumb -3.96529 -57.375 0
440
root 10.5077 17.1783 25.6144 4.90806 0.872514 -0.859305
lfemur -30.0767 2.84598 -23.9226
ltibia 30.1687 0 0
lfoot -15.8505 5.30386 0
ltoes 2.02906 0 0
rfemur -8.86433 0.0308798 21.8988
rtibia 45.4132 0 0
rfoot -11.5235 -2.59554 0
rtoes -15.7174 0 0
lowerback -7.38728 -0.253018 -1.0569
upperback 0.655549 -0.372285 2.08057
thorax 4.91892 -0.246863 2.74204
lowerneck -21.649 -4.46712 -11.5492
upperneck 23.1439 -5.47507 11.2804
head 11.8548 -2.08666 5.28597
lclavicle 2.01489e-14 1.69352e-14 0
lhumerus -27.1358 -14.5325 88.9927
lradius 23.1356 0 0
lwrist 0.958291 0 0
lhand -12.2538 -23.8473 0
lfingers 7.12502 0 0
lthumb 13.8121 5.66951 0
rclavicle 2.01489e-14 1.69352e-14 0
rhumerus -37.4034 12.75 -87.8783
rradius 39.0106 0 0
rwrist -17.0728 0 0
rhand -30.6866 -27.5374 0
rfingers 7.12502 0 0
rthumb -3.98052 -57.4803 0
441
root 10.5321 17.195 25.7553 4.86401 0.967118 -0.640465
lfemur -29.28 2.8928 -24.2493
ltibia 30.0654 0 0
lfoot -15.8802 5.20751 0
ltoes 2.22288 0 0
rfemur -9.91419 -0.091264 21.5744
rtibia 46.528 0 0
rfoot -11.7711 -2.93536 0
rtoes -15.807 0 0
lowerback -7.34259 -0.386826 -1.19732
upperback 0.666331 -0.535333 2.03303
thorax 4.9137 -0.330427 2.75189
lowerneck -21.7331 -4.4068 -11.491
upperneck 23.1926 -5.39043 11.2327
head 11.8736 -2.04694 5.27386
lclavicle 1.91375e-14 1.59452e-14 0
lhumerus -26.413 -14.7258 88.8454
lradius 23.1082 0 0
lwrist 0.840298 0 0
lhand -12.3074 -23.8204 0
lfingers 7.12502 0 0
lthumb 13.7605 5.70029 0
rclavicle 1.91375e-14 1.59452e-14 0
rhumerus -37.7267 12.6105 -87.8562
rradius 38.9156 0 0
rwrist -17.016 0 0
rhand -30.7011 -27.6383 0
rfingers 7.12502 0 0
rthumb -3.99452 -57.5809 0
442
root 10.5559 17.2115 25.8962 4.82157 1.06111 -0.424934
lfemur -28.4756 2.93771 -24.5683
ltibia 29.9501 0 0
lfoot -15.9066 5.11321 0
ltoes 2.40169 0 0
rfemur -10.9552 -0.209016 21.2561
rtibia 47.6118 0 0
rfoot -12.0189 -3.27215 0
rtoes -15.8995 0 0
lowerback -7.29855 -0.519627 -1.3358
upperback 0.676383 -0.697284 1.98667
thorax 4.90815 -0.4134 2.76202
lowerneck -21.8167 -4.34711 -11.4334
upperneck 23.2402 -5.30673 11.1858
head 11.8921 -2.00761 5.262
lclavicle 1.81497e-14 1.49774e-14 0
lhumerus -25.7063 -14.9173 88.7039
lradius 23.0852 0 0
lwrist 0.726627 0 0
lhand -12.3584 -23.7947 0
lfingers 7.12502 0 0
lthumb 13.7113 5.72963 0
rclavicle 1.81497e-14 1.49774e-14 0
rhumerus -38.0484 12.4687 -87.8307
rradius 38.8166 0 0
rwrist -16.9574 0 0
rhand -30.7143 -27.7344 0
rfingers 7.12502 0 0
rthumb -4.00729 -57.6768 0
443
root 10.5791 17.2275 26.0373 4.78074 1.15436 -0.212963
lfemur -27.6653 2.98071 -24.8793
ltibia 29.8233 0 0
lfoot -15.9297 5.02105 0
ltoes 2.56565 0 0
rfemur -11.9858 -0.322317 20.9443
rtibia 48.6637 0 0
rfoot -12.2667 -3.60546 0
rtoes -15.9947 0 0
lowerback -7.25522 -0.651233 -1.47214
upperback 0.685711 -0.857909 1.94153
thorax 4.9023 -0.495667 2.77242
lowerneck -21.8995 -4.28812 -11.3765
upperneck 23.2867 -5.22407 11.1398
head 11.9102 -1.96872 5.2504
lclavicle 1.71866e-14 1.40327e-14 0
lhumerus -25.0165 -15.1067 88.5681
lradius 23.0664 0 0
lwrist 0.617334 0 0
lhand -12.4069 -23.7703 0
lfingers 7.12502 0 0
lthumb 13.6647 5.75753 0
rclavicle 1.71866e-14 1.40327e-14 0
rhumerus -38.3679 12.3249 -87.8019
rradius 38.7141 0 0
rwrist -16.8971 0 0
rhand -30.7263 -27.8258 0
rfingers 7.12502 0 0
rthumb -4.01886 -57.768 0
